<?xml version="1.0" encoding="UTF-8"?>
<svg version="1.1" xmlns="http://www.w3.org/2000/svg" width="498" height="501">
<path d="M0 0 C1.29292969 -0.01224609 2.58585937 -0.02449219 3.91796875 -0.03710938 C5.15933594 -0.03904297 6.40070313 -0.04097656 7.6796875 -0.04296875 C8.81905762 -0.04707764 9.95842773 -0.05118652 11.13232422 -0.05541992 C14.05540928 0.18185122 15.70702841 0.56947223 18.125 2.1875 C19.73274152 5.40298303 19.2691489 8.90927537 19.2668457 12.44165039 C19.27032013 13.29555359 19.27379456 14.14945679 19.27737427 15.02923584 C19.28473806 16.88825387 19.29008011 18.74728073 19.29366493 20.60630989 C19.30082618 23.5536474 19.31649243 26.50081801 19.33500671 29.44810486 C19.38747642 37.82988119 19.43540743 46.21156901 19.45092773 54.59350586 C19.46103973 59.71829174 19.49045146 64.84266196 19.53224754 69.96728325 C19.54452252 71.91636439 19.54968523 73.86550436 19.54744911 75.81462288 C19.54508198 78.55272439 19.567371 81.28964644 19.5949707 84.02758789 C19.58836929 84.82430405 19.58176788 85.6210202 19.57496643 86.44187927 C19.68785421 93.30824659 21.60200365 99.44824683 26.3125 104.5625 C35.39802442 109.81191411 45.77825068 111.02418733 56.03125 108.4609375 C62.36369457 106.05695391 69.30836191 102.91245713 73.125 97.1875 C73.785 97.1875 74.445 97.1875 75.125 97.1875 C75.351875 96.548125 75.57875 95.90875 75.8125 95.25 C76.92879462 92.64531256 78.15508084 90.32526589 79.5625 87.875 C85.66739524 76.99784151 86.25951363 67.10757548 86.32423019 54.76601219 C86.33614983 52.69355054 86.35562676 50.62128532 86.37734985 48.54890442 C86.43858179 42.66295855 86.49317808 36.777046 86.52636719 30.89086914 C86.54728498 27.27640963 86.58254088 23.66233169 86.62712479 20.04808998 C86.64128241 18.67460923 86.65000671 17.30106126 86.65317917 15.92751122 C86.65807599 14.01303367 86.68282263 12.09863783 86.70849609 10.18432617 C86.71658295 9.09592941 86.7246698 8.00753265 86.73300171 6.88615417 C87.125 4.1875 87.125 4.1875 88.46353149 2.37519836 C93.41619652 -1.16520709 100.20656235 0.00313159 106 0 C107.77697266 -0.01836914 107.77697266 -0.01836914 109.58984375 -0.03710938 C110.73324219 -0.03904297 111.87664062 -0.04097656 113.0546875 -0.04296875 C114.09866699 -0.04707764 115.14264648 -0.05118652 116.21826172 -0.05541992 C119.22124131 0.19554301 121.40579975 0.92369487 124.125 2.1875 C125.50658876 17.08275382 125.19213306 31.99131254 125.10449219 46.93408203 C125.04175187 58.68798555 125.02251526 70.38774754 125.7489624 82.12191772 C126.30294631 91.4085553 126.34727594 100.69853769 126.36523438 109.99951172 C126.37514507 113.10799983 126.40640202 116.21587889 126.4375 119.32421875 C126.44401433 121.31770449 126.44927092 123.31119484 126.453125 125.3046875 C126.4654718 126.22547089 126.4778186 127.14625427 126.49053955 128.09494019 C126.47375055 132.90183392 126.38305035 136.35236191 123.125 140.1875 C118.19362114 141.70998895 112.76146062 141.37100586 107.625 141.375 C106.79613281 141.38724609 105.96726562 141.39949219 105.11328125 141.41210938 C100.46600571 141.42319191 96.34710525 141.35719298 92.125 139.1875 C89.96334504 135.54375227 89.58767645 131.53071202 89 127.375 C88.83242188 126.21355469 88.66484375 125.05210937 88.4921875 123.85546875 C88.37101562 122.97503906 88.24984375 122.09460938 88.125 121.1875 C87.67511719 121.68378906 87.22523438 122.18007813 86.76171875 122.69140625 C74.0829997 136.08155643 57.19297866 142.85365208 38.8671875 143.37109375 C36.91155297 143.40042171 34.95579662 143.42246287 33 143.4375 C31.60394531 143.4516394 31.60394531 143.4516394 30.1796875 143.46606445 C18.31342708 143.41023066 7.23418606 140.42508289 -2.875 134.1875 C-2.875 133.5275 -2.875 132.8675 -2.875 132.1875 C-3.865 132.1875 -4.855 132.1875 -5.875 132.1875 C-13.32788689 125.53004884 -18.26815933 116.85371086 -19.06145668 106.83199501 C-19.14052619 104.18728526 -19.1567331 101.54944817 -19.1496582 98.90356445 C-19.15476913 97.90580994 -19.15988007 96.90805542 -19.16514587 95.88006592 C-19.17897279 92.60357561 -19.17809104 89.32729714 -19.17578125 86.05078125 C-19.17967046 83.76490705 -19.1840056 81.47903356 -19.18876648 79.19316101 C-19.19621271 74.41284842 -19.19594787 69.63260972 -19.19067383 64.85229492 C-19.18486518 58.7254986 -19.20185174 52.5990032 -19.2250185 46.47225666 C-19.23974064 41.75652803 -19.24062988 37.04087228 -19.23750877 32.32512474 C-19.23802222 30.06567982 -19.24326425 27.80623084 -19.25332069 25.54680824 C-19.26564526 22.39208903 -19.2589183 19.23796156 -19.24731445 16.08325195 C-19.25495819 15.15067062 -19.26260193 14.21808929 -19.27047729 13.25724792 C-19.23122489 8.4336257 -19.07682271 5.07354299 -15.875 1.1875 C-11.32650564 -1.08674718 -4.99383178 0.00247464 0 0 Z " fill="#B466D0" transform="translate(196.875,208.8125)"/>
<path d="M0 0 C1.77697266 -0.01836914 1.77697266 -0.01836914 3.58984375 -0.03710938 C4.73324219 -0.03904297 5.87664062 -0.04097656 7.0546875 -0.04296875 C8.09866699 -0.04707764 9.14264648 -0.05118652 10.21826172 -0.05541992 C13.22124131 0.19554301 15.40579975 0.92369487 18.125 2.1875 C19.50658876 17.08275382 19.19213306 31.99131254 19.10449219 46.93408203 C19.04175187 58.68798555 19.02251526 70.38774754 19.7489624 82.12191772 C20.30294631 91.4085553 20.34727594 100.69853769 20.36523438 109.99951172 C20.37514507 113.10799983 20.40640202 116.21587889 20.4375 119.32421875 C20.44401433 121.31770449 20.44927092 123.31119484 20.453125 125.3046875 C20.4654718 126.22547089 20.4778186 127.14625427 20.49053955 128.09494019 C20.47375055 132.90183392 20.38305035 136.35236191 17.125 140.1875 C12.19362114 141.70998895 6.76146062 141.37100586 1.625 141.375 C0.79613281 141.38724609 -0.03273438 141.39949219 -0.88671875 141.41210938 C-5.53399429 141.42319191 -9.65289475 141.35719298 -13.875 139.1875 C-16.03665496 135.54375227 -16.41232355 131.53071202 -17 127.375 C-17.16757812 126.21355469 -17.33515625 125.05210937 -17.5078125 123.85546875 C-17.62898438 122.97503906 -17.75015625 122.09460938 -17.875 121.1875 C-18.40609375 121.73019531 -18.9371875 122.27289063 -19.484375 122.83203125 C-20.19078125 123.54746094 -20.8971875 124.26289063 -21.625 125 C-22.32109375 125.70769531 -23.0171875 126.41539062 -23.734375 127.14453125 C-25.68928645 129.01025879 -27.67838553 130.61919642 -29.875 132.1875 C-30.535 131.8575 -31.195 131.5275 -31.875 131.1875 C-28.8423325 124.49521932 -25.73057061 120.19910828 -18.875 117.1875 C-18.215 117.1875 -17.555 117.1875 -16.875 117.1875 C-16.875 115.8675 -16.875 114.5475 -16.875 113.1875 C-16.215 113.1875 -15.555 113.1875 -14.875 113.1875 C-13.79518385 119.82065632 -13.34854386 126.48735815 -12.875 133.1875 C-11.225 133.1875 -9.575 133.1875 -7.875 133.1875 C-7.545 134.8375 -7.215 136.4875 -6.875 138.1875 C0.385 137.8575 7.645 137.5275 15.125 137.1875 C16.88687027 132.78282433 17.37830722 130.98087336 17.3125 126.5 C17.30283203 125.07107422 17.30283203 125.07107422 17.29296875 123.61328125 C17.16078805 120.91740971 16.92783054 118.30034831 16.62832642 115.62182617 C16.09361913 110.34425847 15.94671257 105.11410445 15.90380859 99.8125 C15.8923027 98.82914169 15.88079681 97.84578339 15.86894226 96.83262634 C15.83257907 93.61761458 15.80274346 90.40258325 15.7734375 87.1875 C15.75029674 84.94213612 15.72690622 82.69677481 15.70327759 80.45141602 C15.65501633 75.7646722 15.61005017 71.07791125 15.56738281 66.39111328 C15.51229596 60.37397307 15.44848926 54.35696135 15.38220787 48.3399353 C15.3322577 43.7127408 15.28708731 39.08550914 15.24336624 34.45825195 C15.22176751 32.23818418 15.19861524 30.01813097 15.1739006 27.7980957 C15.14016997 24.70786745 15.11291075 21.61764929 15.08740234 18.52734375 C15.07602737 17.60582016 15.0646524 16.68429657 15.05293274 15.73484802 C15.04454124 14.47765709 15.04454124 14.47765709 15.03598022 13.19506836 C15.02548425 12.10010292 15.02548425 12.10010292 15.01477623 10.98301697 C15.125 9.1875 15.125 9.1875 16.125 7.1875 C14.805 7.1875 13.485 7.1875 12.125 7.1875 C11.135 7.1875 10.145 7.1875 9.125 7.1875 C9.125 6.1975 9.125 5.2075 9.125 4.1875 C6.01283541 2.63141771 2.7242342 3.04427168 -0.6875 3.0625 C-1.75581055 3.05669922 -1.75581055 3.05669922 -2.84570312 3.05078125 C-6.64780929 3.05781567 -10.17987007 3.272792 -13.875 4.1875 C-14.74892791 7.96990434 -15.01938939 11.50455044 -15.06445312 15.38305664 C-15.08117065 16.61105484 -15.09788818 17.83905304 -15.1151123 19.10426331 C-15.12868774 20.42208298 -15.14226318 21.73990265 -15.15625 23.09765625 C-15.17430617 24.47099006 -15.19290998 25.84431678 -15.21203613 27.21763611 C-15.28161619 32.29949396 -15.34122455 37.38145972 -15.40106201 42.46343994 C-15.45207786 46.76482539 -15.50692095 51.06612884 -15.56687927 55.36739922 C-15.59337236 57.38144722 -15.61417123 59.39556752 -15.6348877 61.40968323 C-15.65160522 62.63452927 -15.66832275 63.85937531 -15.68554688 65.12133789 C-15.70433899 66.73752769 -15.70433899 66.73752769 -15.72351074 68.3863678 C-15.875 71.1875 -15.875 71.1875 -16.44934082 73.44163513 C-17.09721764 75.28169015 -17.09721764 75.28169015 -15.875 77.1875 C-16.535 78.1775 -17.195 79.1675 -17.875 80.1875 C-17.875 81.1775 -17.875 82.1675 -17.875 83.1875 C-19.37109375 84.6171875 -19.37109375 84.6171875 -21.3125 86.0625 C-24.32451784 88.48798726 -24.32451784 88.48798726 -25.8125 92.0625 C-25.833125 92.76375 -25.85375 93.465 -25.875 94.1875 C-26.865 94.1875 -27.855 94.1875 -28.875 94.1875 C-27.96546734 91.17904581 -27.06959571 88.50900595 -25.4375 85.8125 C-19.6418181 76.0757544 -19.73371816 65.81686593 -19.67576981 54.76601219 C-19.66385017 52.69355054 -19.64437324 50.62128532 -19.62265015 48.54890442 C-19.56141821 42.66295855 -19.50682192 36.777046 -19.47363281 30.89086914 C-19.45271502 27.27640963 -19.41745912 23.66233169 -19.37287521 20.04808998 C-19.35871759 18.67460923 -19.34999329 17.30106126 -19.34682083 15.92751122 C-19.34192401 14.01303367 -19.31717737 12.09863783 -19.29150391 10.18432617 C-19.28341705 9.09592941 -19.2753302 8.00753265 -19.26699829 6.88615417 C-18.875 4.1875 -18.875 4.1875 -17.53646851 2.37519836 C-12.58380348 -1.16520709 -5.79343765 0.00313159 0 0 Z " fill="#6654B2" transform="translate(302.875,208.8125)"/>
<path d="M0 0 C0.33 0 0.66 0 1 0 C1.84021204 13.27339626 2.21455495 26.51221 2.24023438 39.81201172 C2.25014507 42.92049983 2.28140202 46.02837889 2.3125 49.13671875 C2.31901433 51.13020449 2.32427092 53.12369484 2.328125 55.1171875 C2.3404718 56.03797089 2.3528186 56.95875427 2.36553955 57.90744019 C2.34875055 62.71433392 2.25805035 66.16486191 -1 70 C-5.93137886 71.52248895 -11.36353938 71.18350586 -16.5 71.1875 C-17.32886719 71.19974609 -18.15773438 71.21199219 -19.01171875 71.22460938 C-23.65899429 71.23569191 -27.77789475 71.16969298 -32 69 C-34.16165496 65.35625227 -34.53732355 61.34321202 -35.125 57.1875 C-35.29257812 56.02605469 -35.46015625 54.86460937 -35.6328125 53.66796875 C-35.75398438 52.78753906 -35.87515625 51.90710938 -36 51 C-36.53109375 51.54269531 -37.0621875 52.08539063 -37.609375 52.64453125 C-38.31578125 53.35996094 -39.0221875 54.07539063 -39.75 54.8125 C-40.44609375 55.52019531 -41.1421875 56.22789062 -41.859375 56.95703125 C-43.81428645 58.82275879 -45.80338553 60.43169642 -48 62 C-48.66 61.67 -49.32 61.34 -50 61 C-46.9673325 54.30771932 -43.85557061 50.01160828 -37 47 C-36.34 47 -35.68 47 -35 47 C-35 45.68 -35 44.36 -35 43 C-34.34 43 -33.68 43 -33 43 C-31.92018385 49.63315632 -31.47354386 56.29985815 -31 63 C-29.35 63 -27.7 63 -26 63 C-25.67 64.65 -25.34 66.3 -25 68 C-17.74 67.67 -10.48 67.34 -3 67 C-1.19881914 62.49704786 -0.73795274 60.38913252 -0.68115234 55.7409668 C-0.66128265 54.50005783 -0.64141296 53.25914886 -0.62094116 51.9806366 C-0.60906671 50.63683246 -0.59740374 49.29302643 -0.5859375 47.94921875 C-0.56721502 46.56629799 -0.5476408 45.18338853 -0.5272522 43.80049133 C-0.47603882 40.17233962 -0.43635569 36.54415091 -0.39910889 32.91583252 C-0.35900125 29.20877004 -0.30793985 25.50186001 -0.2578125 21.79492188 C-0.16118118 14.53005271 -0.07673587 7.26510945 0 0 Z " fill="#52428E" transform="translate(321,279)"/>
<path d="M0 0 C0 0.33 0 0.66 0 1 C-1.65 1.33 -3.3 1.66 -5 2 C-5.87392791 5.78240434 -6.14438939 9.31705044 -6.18945312 13.19555664 C-6.20617065 14.42355484 -6.22288818 15.65155304 -6.2401123 16.91676331 C-6.25368774 18.23458298 -6.26726318 19.55240265 -6.28125 20.91015625 C-6.29930617 22.28349006 -6.31790998 23.65681678 -6.33703613 25.03013611 C-6.40661619 30.11199396 -6.46622455 35.19395972 -6.52606201 40.27593994 C-6.57707786 44.57732539 -6.63192095 48.87862884 -6.69187927 53.17989922 C-6.71837236 55.19394722 -6.73917123 57.20806752 -6.7598877 59.22218323 C-6.77660522 60.44702927 -6.79332275 61.67187531 -6.81054688 62.93383789 C-6.82307495 64.01129776 -6.83560303 65.08875763 -6.84851074 66.1988678 C-7 69 -7 69 -7.57434082 71.25413513 C-8.22221764 73.09419015 -8.22221764 73.09419015 -7 75 C-7.66 75.99 -8.32 76.98 -9 78 C-9 78.99 -9 79.98 -9 81 C-10.49609375 82.4296875 -10.49609375 82.4296875 -12.4375 83.875 C-15.44951784 86.30048726 -15.44951784 86.30048726 -16.9375 89.875 C-16.958125 90.57625 -16.97875 91.2775 -17 92 C-17.99 92 -18.98 92 -20 92 C-19.09046734 88.99154581 -18.19459571 86.32150595 -16.5625 83.625 C-10.42136408 73.30789166 -10.82870967 62.10882178 -10.68359375 50.4375 C-10.66298596 49.03645264 -10.64198859 47.63541097 -10.62062073 46.234375 C-10.56579448 42.57172284 -10.51621366 38.9090183 -10.46777344 35.24627686 C-10.41726773 31.49877336 -10.36173442 27.75134461 -10.30664062 24.00390625 C-10.19954263 16.66933438 -10.09799323 9.33469977 -10 2 C-6.48375245 0.05841983 -4.0284349 -0.18311068 0 0 Z " fill="#9269CE" transform="translate(294,211)"/>
<path d="M0 0 C0.94875 0.04125 1.8975 0.0825 2.875 0.125 C0.875 2.125 -1.125 4.125 -3.125 6.125 C-3.21383986 8.02717613 -3.23186585 9.93268673 -3.22265625 11.83691406 C-3.21770142 13.67845062 -3.21770142 13.67845062 -3.21264648 15.55718994 C-3.20852753 16.22051582 -3.20440857 16.88384171 -3.20016479 17.56726837 C-3.18733748 19.66723149 -3.18086393 21.76713066 -3.17602539 23.86712646 C-3.16267419 29.11042494 -3.13910907 34.35366709 -3.11462402 39.59692383 C-3.09111446 44.6948159 -3.07272254 49.792688 -3.0625 54.890625 C-3.06097931 55.6082048 -3.05945862 56.32578461 -3.05789185 57.06510925 C-3.03784063 71.76791947 -3.48614461 86.43599854 -4.125 101.125 C-3.465 101.455 -2.805 101.785 -2.125 102.125 C-2.4653125 103.2696875 -2.4653125 103.2696875 -2.8125 104.4375 C-2.915625 105.324375 -3.01875 106.21125 -3.125 107.125 C-1.79121425 108.9604799 -1.79121425 108.9604799 -0.125 110.125 C-1.115 111.115 -1.115 111.115 -2.125 112.125 C-1.0274777 115.11824263 -0.44817108 115.97110901 2.5 117.375 C3.675625 117.74625 3.675625 117.74625 4.875 118.125 C4.545 119.115 4.215 120.105 3.875 121.125 C1.5625 121 1.5625 121 -1.125 120.125 C-4.2871962 115.15583455 -5.24625485 110.28716745 -5.25871277 104.47505188 C-5.26297775 103.57075439 -5.26724274 102.66645691 -5.27163696 101.73475647 C-5.27118378 100.75534592 -5.27073059 99.77593536 -5.27026367 98.7668457 C-5.27362228 97.72569611 -5.2769809 96.68454651 -5.28044128 95.61184692 C-5.28993109 92.17481287 -5.29189303 88.73782758 -5.29296875 85.30078125 C-5.29618134 82.91375203 -5.29954541 80.52672301 -5.30305481 78.13969421 C-5.30904017 73.14056949 -5.31089518 68.14146204 -5.31030273 63.14233398 C-5.31020083 56.72264556 -5.32388438 50.30306704 -5.34107494 43.88340473 C-5.35216416 38.95677679 -5.35422294 34.03017575 -5.35369301 29.10353661 C-5.35487658 26.73555305 -5.35931928 24.36756887 -5.36702538 21.99959755 C-5.37676855 18.6979754 -5.37397038 15.39659635 -5.36791992 12.0949707 C-5.37353943 11.10948746 -5.37915894 10.12400421 -5.38494873 9.10865784 C-5.38075424 8.21281982 -5.37655975 7.31698181 -5.37223816 6.39399719 C-5.37278293 5.61328008 -5.37332769 4.83256296 -5.37388897 4.02818775 C-4.90437095 0.4379083 -3.39525565 0.13581023 0 0 Z " fill="#E973B1" transform="translate(185.125,210.875)"/>
<path d="M0 0 C0.66 0 1.32 0 2 0 C2.8482614 5.63215003 3.48088167 11.27210668 4.0625 16.9375 C4.15337891 17.81212891 4.24425781 18.68675781 4.33789062 19.58789062 C4.55979047 21.72513651 4.78006272 23.86255127 5 26 C4.34 26 3.68 26 3 26 C1.24619442 22.08709763 0.47435082 18.4257665 -0.125 14.1875 C-0.29257812 13.02605469 -0.46015625 11.86460937 -0.6328125 10.66796875 C-0.75398438 9.78753906 -0.87515625 8.90710938 -1 8 C-1.53109375 8.54269531 -2.0621875 9.08539063 -2.609375 9.64453125 C-3.31578125 10.35996094 -4.0221875 11.07539063 -4.75 11.8125 C-5.44609375 12.52019531 -6.1421875 13.22789062 -6.859375 13.95703125 C-8.81428645 15.82275879 -10.80338553 17.43169642 -13 19 C-13.66 18.67 -14.32 18.34 -15 18 C-11.9673325 11.30771932 -8.85557061 7.01160828 -2 4 C-1.34 4 -0.68 4 0 4 C0 2.68 0 1.36 0 0 Z " fill="#966BDA" transform="translate(286,322)"/>
<path d="M0 0 C0.33 0 0.66 0 1 0 C1 26.73 1 53.46 1 81 C0.67 81 0.34 81 0 81 C-0.89227375 71.57834605 -1.09549835 62.27161127 -1 52.8125 C-0.92354336 45.17065916 -0.91708943 37.68967545 -1.80419922 30.09448242 C-2.06903612 27.2615201 -1.86832012 24.57411667 -1.5625 21.75 C-0.99450152 15.7105225 -0.95567356 9.76552542 -1.0625 3.703125 C-1 1 -1 1 0 0 Z " fill="#CB71BD" transform="translate(214,225)"/>
<path d="M0 0 C0.33 0 0.66 0 1 0 C1.85090188 13.29424028 2.18637226 26.54603717 2.18530273 39.86694336 C2.18753492 42.98629541 2.20591062 46.10531736 2.22460938 49.22460938 C2.22753635 51.22135298 2.22952579 53.21809823 2.23046875 55.21484375 C2.23765427 56.14078842 2.24483978 57.06673309 2.25224304 58.02073669 C2.24916641 58.88006302 2.24608978 59.73938934 2.24291992 60.62475586 C2.24434494 61.37575058 2.24576996 62.1267453 2.24723816 62.90049744 C1.96573307 65.29098871 1.18545736 66.92169805 0 69 C-0.33 69 -0.66 69 -1 69 C-0.67 46.23 -0.34 23.46 0 0 Z " fill="#2C235E" transform="translate(321,279)"/>
<path d="M0 0 C0.33 0 0.66 0 1 0 C1.0934744 8.45932722 1.16415137 16.91843177 1.20724869 25.37815094 C1.22795337 29.30811556 1.25594898 33.23772194 1.30175781 37.16748047 C1.34583809 40.97361164 1.36926504 44.77940254 1.37950897 48.58576965 C1.38679076 50.02396489 1.40100267 51.46214561 1.42292023 52.90019226 C1.53860371 60.81933485 1.03229442 68.18530261 -0.83691406 75.88867188 C-1.00071438 76.57250191 -1.16451469 77.25633194 -1.33327866 77.96088409 C-2.3275172 81.67409439 -2.68843575 82.7922905 -6 85 C-6.72965366 87.56282742 -6.72965366 87.56282742 -7 90 C-7.99 90 -8.98 90 -10 90 C-9.09046734 86.99154581 -8.19459571 84.32150595 -6.5625 81.625 C-0.42136408 71.30789166 -0.82870967 60.10882178 -0.68359375 48.4375 C-0.66298596 47.03645264 -0.64198859 45.63541097 -0.62062073 44.234375 C-0.56579448 40.57172284 -0.51621366 36.9090183 -0.46777344 33.24627686 C-0.41726773 29.49877336 -0.36173442 25.75134461 -0.30664062 22.00390625 C-0.19954263 14.66933438 -0.09799323 7.33469977 0 0 Z " fill="#2F194C" transform="translate(284,213)"/>
<path d="M0 0 C2.98871019 2.98871019 2.30008304 6.2933044 2.30297852 10.30175781 C2.31141785 11.16047989 2.31985718 12.01920197 2.32855225 12.90394592 C2.35442122 15.75367768 2.36649493 18.60330557 2.37890625 21.453125 C2.39507677 23.43130315 2.41225629 25.40947329 2.43040466 27.38763428 C2.47618455 32.60659064 2.51093144 37.82555773 2.54260254 43.0446167 C2.59437333 51.38463724 2.65977799 59.72453881 2.73081779 68.06441498 C2.75360371 70.97695389 2.76991033 73.88947799 2.78553772 76.80206299 C2.79895224 78.59493161 2.81256771 80.38779874 2.82641602 82.18066406 C2.82902939 82.98816605 2.83164276 83.79566803 2.83433533 84.62763977 C2.87303031 88.8581879 3.16754163 92.83254048 4 97 C3.01 97 2.02 97 1 97 C0.67 64.99 0.34 32.98 0 0 Z " fill="#753A6E" transform="translate(214,211)"/>
<path d="M0 0 C1 2 1 2 0.58203125 3.875 C-1.48937305 9.59502001 -1.48937305 9.59502001 -3.8125 11.4375 C-6.52927946 12.13610043 -9.22286372 12.60326625 -12 13 C-13.66804677 13.32635698 -15.33524314 13.65725594 -17 14 C-13.77325773 11.4454957 -10.34434243 9.36497139 -6.8046875 7.28125 C-4.71462131 5.9590486 -4.71462131 5.9590486 -3 3 C-2.34 3 -1.68 3 -1 3 C-0.67 2.01 -0.34 1.02 0 0 Z " fill="#6F4690" transform="translate(273,303)"/>
<path d="M0 0 C0.33 0 0.66 0 1 0 C1.18866152 5.78995713 0.63175559 10.77654017 -0.8125 16.375 C-0.97814453 17.08527344 -1.14378906 17.79554688 -1.31445312 18.52734375 C-2.62806326 23.75204217 -2.62806326 23.75204217 -6 26 C-6.72965366 28.56282742 -6.72965366 28.56282742 -7 31 C-7.99 31 -8.98 31 -10 31 C-9.09046734 27.99154581 -8.19459571 25.32150595 -6.5625 22.625 C-2.32668951 15.50883838 -1.14621588 8.09093561 0 0 Z " fill="#492F6A" transform="translate(284,272)"/>
<path d="M0 0 C0.62003906 0.2165625 1.24007812 0.433125 1.87890625 0.65625 C11.79178644 3.77296342 21.80664122 3.93564546 32 2 C32 2.99 32 3.98 32 5 C28.35423608 5.05878077 24.70859648 5.0938558 21.0625 5.125 C20.04091797 5.14175781 19.01933594 5.15851563 17.96679688 5.17578125 C11.64311648 5.21618815 6.11683473 4.62010013 0 3 C0 2.01 0 1.02 0 0 Z " fill="#522E5A" transform="translate(224,315)"/>
<path d="M0 0 C0.12117188 0.78503906 0.24234375 1.57007813 0.3671875 2.37890625 C1.27186083 8.05051213 2.2579299 13.52492254 4 19 C3.34 19.33 2.68 19.66 2 20 C0.24619442 16.08709763 -0.52564918 12.4257665 -1.125 8.1875 C-1.29257812 7.02605469 -1.46015625 5.86460937 -1.6328125 4.66796875 C-1.75398438 3.78753906 -1.87515625 2.90710938 -2 2 C-4.97 4.475 -4.97 4.475 -8 7 C-6.13932792 2.84926997 -4.83061881 0 0 0 Z " fill="#3F295F" transform="translate(287,328)"/>
<path d="M0 0 C0.375 2.6875 0.375 2.6875 0 6 C-1.823983 8.06398076 -3.72763839 9.39041053 -6 11 C-6.66 10.67 -7.32 10.34 -8 10 C-7.21516341 8.51719804 -6.42190666 7.0388502 -5.625 5.5625 C-5.18414062 4.73878906 -4.74328125 3.91507812 -4.2890625 3.06640625 C-2.37618147 0 -2.37618147 0 0 0 Z " fill="#9661CD" transform="translate(279,330)"/>
<path d="M0 0 C0.66 0 1.32 0 2 0 C1.71125 0.70125 1.4225 1.4025 1.125 2.125 C-0.05659928 5.02203992 -0.05659928 5.02203992 -0.9375 8.1875 C-2 11 -2 11 -5 13 C-6.125 9.25 -6.125 9.25 -5 7 C-4.01 7 -3.02 7 -2 7 C-2.061875 5.824375 -2.061875 5.824375 -2.125 4.625 C-2 2 -2 2 0 0 Z " fill="#9C6AD3" transform="translate(279,296)"/>
<path d="M0 0 C2.475 0.495 2.475 0.495 5 1 C5 1.99 5 2.98 5 4 C5.66 4 6.32 4 7 4 C7.99 5.98 8.98 7.96 10 10 C7 10 7 10 5.17578125 8.3203125 C4.56089844 7.59585937 3.94601563 6.87140625 3.3125 6.125 C2.68988281 5.40570313 2.06726563 4.68640625 1.42578125 3.9453125 C0 2 0 2 0 0 Z " fill="#8B456C" transform="translate(184,331)"/>
<path d="M0 0 C2.31 0 4.62 0 7 0 C6.8125 2.375 6.8125 2.375 6 5 C3.4375 6.3125 3.4375 6.3125 1 7 C1.020625 6.21625 1.04125 5.4325 1.0625 4.625 C1.18684063 2.01885039 1.18684063 2.01885039 0 0 Z " fill="#D36CBC" transform="translate(207,211)"/>
<path d="M0 0 C2.64 0.33 5.28 0.66 8 1 C8 2.65 8 4.3 8 6 C2.33846154 4.52307692 2.33846154 4.52307692 0.625 1.875 C0.41875 1.25625 0.2125 0.6375 0 0 Z " fill="#E16EB7" transform="translate(191,336)"/>
<path d="M0 0 C2.97 0.33 5.94 0.66 9 1 C9 2.32 9 3.64 9 5 C6.66666667 5 4.33333333 5 2 5 C2 4.01 2 3.02 2 2 C1.34 1.34 0.68 0.68 0 0 Z " fill="#8667F3" transform="translate(310,211)"/>
<path d="M0 0 C1.65 0 3.3 0 5 0 C5.33 1.65 5.66 3.3 6 5 C3.03 4.505 3.03 4.505 0 4 C0 2.68 0 1.36 0 0 Z " fill="#9469EC" transform="translate(290,342)"/>
<path d="M0 0 C2.31 0 4.62 0 7 0 C7.33 0.99 7.66 1.98 8 3 C5.6568787 2.74438677 3.32156597 2.40729228 1 2 C0.67 1.34 0.34 0.68 0 0 Z " fill="#7A426B" transform="translate(200,345)"/>
<path d="M0 0 C1.67542976 0.28604898 3.34385343 0.61781233 5 1 C5.33 2.32 5.66 3.64 6 5 C3.03 4.505 3.03 4.505 0 4 C-0.33 3.01 -0.66 2.02 -1 1 C-0.67 0.67 -0.34 0.34 0 0 Z " fill="#D16BC6" transform="translate(219,315)"/>
<path d="M0 0 C1.65 0 3.3 0 5 0 C3.35 1.65 1.7 3.3 0 5 C-0.66 4.67 -1.32 4.34 -2 4 C-1.34 2.68 -0.68 1.36 0 0 Z " fill="#633F86" transform="translate(273,336)"/>
</svg>
